<svg xmlns="http://www.w3.org/2000/svg" viewBox="0 0 420 96" width="420" height="96" role="img" aria-label="ProfitLink Pro" xmlns:c2pa="http://c2pa.org/manifest"><metadata><c2pa:manifest>AAAWgmp1bWIAAAAeanVtZGMycGEAEQAQgAAAqgA4m3EDYzJwYQAAABZcanVtYgAAAEdqdW1kYzJtYQARABCAAACqADibcQN1cm46YzJwYTowOGI2ZDRkNC1hMTY2LTQyZWItOGUwYy1hMzdmMjIxMDZlOWQAAAADl2p1bWIAAAApanVtZGMyYXMAEQAQgAAAqgA4m3EDYzJwYS5hc3NlcnRpb25zAAAAALxqdW1iAAAARGp1bWRjYm9yABEAEIAAAKoAOJtxE2MycGEuaW5ncmVkaWVudC52MwAAAAAYYzJzaN1gUS3orgusS/X3bxRQiWIAAABwY2JvcqNpZGM6Zm9ybWF0bWltYWdlL3N2Zyt4bWxqaW5zdGFuY2VJRHgseG1wOmlpZDpmOTUzMWU5YS1kNGRmLTQ2YzctODczMC1hMWM0ZTUzYWY4NTlscmVsYXRpb25zaGlwaHBhcmVudE9mAAAB4mp1bWIAAABBanVtZGNib3IAEQAQgAAAqgA4m3ETYzJwYS5hY3Rpb25zLnYyAAAAABhjMnNozLXTiocm09rWwUS+Lr6xjQAAAZljYm9yomdhY3Rpb25zgqJmYWN0aW9ua2MycGEub3BlbmVkanBhcmFtZXRlcnOha2luZ3JlZGllbnRzgaJjdXJseC1zZWxmI2p1bWJmPWMycGEuYXNzZXJ0aW9ucy9jMnBhLmluZ3JlZGllbnQudjNkaGFzaFggzTrTdC5yHNfRueR7C4LtI8dwWpbMhHiXFPm8XjAFV36kZmFjdGlvbngdY29tLmFudGhyb3BpYy5jbGF1ZGUucHJvdmlkZWRqcGFyYW1ldGVyc6F4H2NvbS5hbnRocm9waWMub3JpZ2luLWNvbmZpZGVuY2VndW5rbm93bmtkZXNjcmlwdGlvbnhmQ2xhdWRlIHByb3ZpZGVkIHRoaXMgZmlsZSBhdCB0aGUgcmVxdWVzdCBvZiBhIHVzZXIgYW5kIG1heSBoYXZlIGNyZWF0ZWQgb3IgbW9kaWZpZWQgdGhlIGZpbGUgY29udGVudHMubXNvZnR3YXJlQWdlbnShZG5hbWVmQ2xhdWRlcmFsbEFjdGlvbnNJbmNsdWRlZPUAAADIanVtYgAAAEBqdW1kY2JvcgARABCAAACqADibcRNjMnBhLmhhc2guZGF0YQAAAAAYYzJzaMtH5+BjHhiyMLDIbYUVGyAAAACAY2JvcqVjYWxnZnNoYTI1NmNwYWRNAAAAAAAAAAAAAAAAAGRoYXNoWCABBYdSO3M1V4Asa1aVBjVTEsd/Jy1aaFaMFECkhfB7VWRuYW1lbmp1bWJmIG1hbmlmZXN0amV4Y2x1c2lvbnOBomVzdGFydBi7Zmxlbmd0aBkeBAAAAj5qdW1iAAAAJ2p1bWRjMmNsABEAEIAAAKoAOJtxA2MycGEuY2xhaW0udjIAAAACD2Nib3KlY2FsZ2ZzaGEyNTZpc2lnbmF0dXJleE1zZWxmI2p1bWJmPS9jMnBhL3VybjpjMnBhOjA4YjZkNGQ0LWExNjYtNDJlYi04ZTBjLWEzN2YyMjEwNmU5ZC9jMnBhLnNpZ25hdHVyZWppbnN0YW5jZUlEeCx4bXA6aWlkOjc3MmQzNzc1LTE0OGMtNDYyYi05NDRjLTBiNWY0ZGEzNTdiZXJjcmVhdGVkX2Fzc2VydGlvbnODomN1cmx4LXNlbGYjanVtYmY9YzJwYS5hc3NlcnRpb25zL2MycGEuaW5ncmVkaWVudC52M2RoYXNoWCDNOtN0LnIc19G55HsLgu0jx3BalsyEeJcU+bxeMAVXfqJjdXJseCpzZWxmI2p1bWJmPWMycGEuYXNzZXJ0aW9ucy9jMnBhLmFjdGlvbnMudjJkaGFzaFggjKWezBNt6GnOBOUcFpeaGwkvQ8BsXuQrGuX1IKL83b+iY3VybHgpc2VsZiNqdW1iZj1jMnBhLmFzc2VydGlvbnMvYzJwYS5oYXNoLmRhdGFkaGFzaFggFHJjLXeTU3jJU1fojI1/ORCzgZC8PPwuujqmFXtD4bt0Y2xhaW1fZ2VuZXJhdG9yX2luZm+jZG5hbWVvQW50aHJvcGljIEZpbGVzZ3ZlcnNpb25lMS4wLjBrc3BlY1ZlcnNpb25lMi40LjAAABA4anVtYgAAAChqdW1kYzJjcwARABCAAACqADibcQNjMnBhLnNpZ25hdHVyZQAAABAIY2JvctKEWQISogEmGCFZAgowggIGMIIBjaADAgECAhRA5aAK7sI50L64g/oGQgU9Z1UTADAKBggqhkjOPQQDAzBJMRcwFQYDVQQKEw5BbnRocm9waWMsIFBCQzEuMCwGA1UEAxMlQW50aHJvcGljIENvbnRlbnQgQ3JlZGVudGlhbHMgUm9vdCBDQTAeFw0yNjA4MDcxODQzNTZaFw0yODA4MDYxOTQzNTZaMEQxFzAVBgNVBAoTDkFudGhyb3BpYywgUEJDMSkwJwYDVQQDEyBBbnRocm9waWMgQ2xhdWRlIENvbnRlbnQgU2lnbmluZzBZMBMGByqGSM49AgEGCCqGSM49AwEHA0IABJh6CmvLUBgFFNU0vUKlOVtE6djd17L5SuwX0LemFisBM3dkd/3cyjxFA3Qo5S46fX0/ihY0VZ7mfb9KF703t5OjWDBWMA4GA1UdDwEB/wQEAwIHgDAVBgNVHSUEDjAMBgorBgEEAYPoXgIBMAwGA1UdEwEB/wQCMAAwHwYDVR0jBBgwFoAUzlHiBIFOZFsj+OPEz5o+nMHXXMIwCgYIKoZIzj0EAwMDZwAwZAIwMXMdFJ4BetLLVY7ORuE9noqbbAZOZn/aArXyTwFAZfKrPzxF2vPoJNf1+UCdg1XGAjBwX1zd9WGqYkqmL5SFqw1QySjr1zJfpJM9+1rdDwSPLMOPOjKuiXjoU/pUUeG9RwmhY3BhZFkNngAAAAAAAAAAAAAAAAAAAAAAAAAAAAAAAAAAAAAAAAAAAAAAAAAAAAAAAAAAAAAAAAAAAAAAAAAAAAAAAAAAAAAAAAAAAAAAAAAAAAAAAAAAAAAAAAAAAAAAAAAAAAAAAAAAAAAAAAAAAAAAAAAAAAAAAAAAAAAAAAAAAAAAAAAAAAAAAAAAAAAAAAAAAAAAAAAAAAAAAAAAAAAAAAAAAAAAAAAAAAAAAAAAAAAAAAAAAAAAAAAAAAAAAAAAAAAAAAAAAAAAAAAAAAAAAAAAAAAAAAAAAAAAAAAAAAAAAAAAAAAAAAAAAAAAAAAAAAAAAAAAAAAAAAAAAAAAAAAAAAAAAAAAAAAAAAAAAAAAAAAAAAAAAAAAAAAAAAAAAAAAAAAAAAAAAAAAAAAAAAAAAAAAAAAAAAAAAAAAAAAAAAAAAAAAAAAAAAAAAAAAAAAAAAAAAAAAAAAAAAAAAAAAAAAAAAAAAAAAAAAAAAAAAAAAAAAAAAAAAAAAAAAAAAAAAAAAAAAAAAAAAAAAAAAAAAAAAAAAAAAAAAAAAAAAAAAAAAAAAAAAAAAAAAAAAAAAAAAAAAAAAAAAAAAAAAAAAAAAAAAAAAAAAAAAAAAAAAAAAAAAAAAAAAAAAAAAAAAAAAAAAAAAAAAAAAAAAAAAAAAAAAAAAAAAAAAAAAAAAAAAAAAAAAAAAAAAAAAAAAAAAAAAAAAAAAAAAAAAAAAAAAAAAAAAAAAAAAAAAAAAAAAAAAAAAAAAAAAAAAAAAAAAAAAAAAAAAAAAAAAAAAAAAAAAAAAAAAAAAAAAAAAAAAAAAAAAAAAAAAAAAAAAAAAAAAAAAAAAAAAAAAAAAAAAAAAAAAAAAAAAAAAAAAAAAAAAAAAAAAAAAAAAAAAAAAAAAAAAAAAAAAAAAAAAAAAAAAAAAAAAAAAAAAAAAAAAAAAAAAAAAAAAAAAAAAAAAAAAAAAAAAAAAAAAAAAAAAAAAAAAAAAAAAAAAAAAAAAAAAAAAAAAAAAAAAAAAAAAAAAAAAAAAAAAAAAAAAAAAAAAAAAAAAAAAAAAAAAAAAAAAAAAAAAAAAAAAAAAAAAAAAAAAAAAAAAAAAAAAAAAAAAAAAAAAAAAAAAAAAAAAAAAAAAAAAAAAAAAAAAAAAAAAAAAAAAAAAAAAAAAAAAAAAAAAAAAAAAAAAAAAAAAAAAAAAAAAAAAAAAAAAAAAAAAAAAAAAAAAAAAAAAAAAAAAAAAAAAAAAAAAAAAAAAAAAAAAAAAAAAAAAAAAAAAAAAAAAAAAAAAAAAAAAAAAAAAAAAAAAAAAAAAAAAAAAAAAAAAAAAAAAAAAAAAAAAAAAAAAAAAAAAAAAAAAAAAAAAAAAAAAAAAAAAAAAAAAAAAAAAAAAAAAAAAAAAAAAAAAAAAAAAAAAAAAAAAAAAAAAAAAAAAAAAAAAAAAAAAAAAAAAAAAAAAAAAAAAAAAAAAAAAAAAAAAAAAAAAAAAAAAAAAAAAAAAAAAAAAAAAAAAAAAAAAAAAAAAAAAAAAAAAAAAAAAAAAAAAAAAAAAAAAAAAAAAAAAAAAAAAAAAAAAAAAAAAAAAAAAAAAAAAAAAAAAAAAAAAAAAAAAAAAAAAAAAAAAAAAAAAAAAAAAAAAAAAAAAAAAAAAAAAAAAAAAAAAAAAAAAAAAAAAAAAAAAAAAAAAAAAAAAAAAAAAAAAAAAAAAAAAAAAAAAAAAAAAAAAAAAAAAAAAAAAAAAAAAAAAAAAAAAAAAAAAAAAAAAAAAAAAAAAAAAAAAAAAAAAAAAAAAAAAAAAAAAAAAAAAAAAAAAAAAAAAAAAAAAAAAAAAAAAAAAAAAAAAAAAAAAAAAAAAAAAAAAAAAAAAAAAAAAAAAAAAAAAAAAAAAAAAAAAAAAAAAAAAAAAAAAAAAAAAAAAAAAAAAAAAAAAAAAAAAAAAAAAAAAAAAAAAAAAAAAAAAAAAAAAAAAAAAAAAAAAAAAAAAAAAAAAAAAAAAAAAAAAAAAAAAAAAAAAAAAAAAAAAAAAAAAAAAAAAAAAAAAAAAAAAAAAAAAAAAAAAAAAAAAAAAAAAAAAAAAAAAAAAAAAAAAAAAAAAAAAAAAAAAAAAAAAAAAAAAAAAAAAAAAAAAAAAAAAAAAAAAAAAAAAAAAAAAAAAAAAAAAAAAAAAAAAAAAAAAAAAAAAAAAAAAAAAAAAAAAAAAAAAAAAAAAAAAAAAAAAAAAAAAAAAAAAAAAAAAAAAAAAAAAAAAAAAAAAAAAAAAAAAAAAAAAAAAAAAAAAAAAAAAAAAAAAAAAAAAAAAAAAAAAAAAAAAAAAAAAAAAAAAAAAAAAAAAAAAAAAAAAAAAAAAAAAAAAAAAAAAAAAAAAAAAAAAAAAAAAAAAAAAAAAAAAAAAAAAAAAAAAAAAAAAAAAAAAAAAAAAAAAAAAAAAAAAAAAAAAAAAAAAAAAAAAAAAAAAAAAAAAAAAAAAAAAAAAAAAAAAAAAAAAAAAAAAAAAAAAAAAAAAAAAAAAAAAAAAAAAAAAAAAAAAAAAAAAAAAAAAAAAAAAAAAAAAAAAAAAAAAAAAAAAAAAAAAAAAAAAAAAAAAAAAAAAAAAAAAAAAAAAAAAAAAAAAAAAAAAAAAAAAAAAAAAAAAAAAAAAAAAAAAAAAAAAAAAAAAAAAAAAAAAAAAAAAAAAAAAAAAAAAAAAAAAAAAAAAAAAAAAAAAAAAAAAAAAAAAAAAAAAAAAAAAAAAAAAAAAAAAAAAAAAAAAAAAAAAAAAAAAAAAAAAAAAAAAAAAAAAAAAAAAAAAAAAAAAAAAAAAAAAAAAAAAAAAAAAAAAAAAAAAAAAAAAAAAAAAAAAAAAAAAAAAAAAAAAAAAAAAAAAAAAAAAAAAAAAAAAAAAAAAAAAAAAAAAAAAAAAAAAAAAAAAAAAAAAAAAAAAAAAAAAAAAAAAAAAAAAAAAAAAAAAAAAAAAAAAAAAAAAAAAAAAAAAAAAAAAAAAAAAAAAAAAAAAAAAAAAAAAAAAAAAAAAAAAAAAAAAAAAAAAAAAAAAAAAAAAAAAAAAAAAAAAAAAAAAAAAAAAAAAAAAAAAAAAAAAAAAAAAAAAAAAAAAAAAAAAAAAAAAAAAAAAAAAAAAAAAAAAAAAAAAAAAAAAAAAAAAAAAAAAAAAAAAAAAAAAAAAAAAAAAAAAAAAAAAAAAAAAAAAAAAAAAAAAAAAAAAAAAAAAAAAAAAAAAAAAAAAAAAAAAAAAAAAAAAAAAAAAAAAAAAAAAAAAAAAAAAAAAAAAAAAAAAAAAAAAAAAAAAAAAAAAAAAAAAAAAAAAAAAAAAAAAAAAAAAAAAAAAAAAAAAAAAAAAAAAAAAAAAAAAAAAAAAAAAAAAAAAAAAAAAAAAAAAAAAAAAAAAAAAAAAAAAAAAAAAAAAAAAAAAAAAAAAAAAAAAAAAAAAAAAAAAAAAAAAAAAAAAAAAAAAAAAAAAAAAAAAAAAAAAAAAAAAAAAAAAAAAAAAAAAAAAAAAAAAAAAAAAAAAAAAAAAAAAAAAAAAAAAAAAAAAAAAAAAAAAAAAAAAAAAAAAAAAAAAAAAAAAAAAAAAAAAAAAAAAAAAAAAAAAAAAAAAAAAAAAAAAAAAAAAAAAAAAAAAAAAAAAAAAAAAAAAAAAAAAAAAAAAAAAAAAAAAAAAAAAAAAAAAAAAAAAAAAAAAAAAAAAAAAAAAAAAAAAAAAAAAAAAAAAAAAAAAAAAAAAAAAAAAAAAAAAAAAAAAAAAAAAAAAAAAAAAAAAAAAAAAAAAAAAAAAAAAAAAAAAAAAAAAAAAAAAAAAAAAAAAAAAAAAAAAAAAAAAAAAAAAAAAAAAAAAAAAAAAAAAAAAAAAAAAAAAAAAAAAAAAAAAAAAAAAAAAAAAAAAAAAAAAAAAAAAAAAAAAAAAAAAAAAAAAAAAAAAAAAAAAAAAAAAAAAAAAAAAAAAAAAAAAAAAAAAAAAAAAAAAAAAAAAAAAAAAAAAAAAAAAAAAAAAAAAAAAAAAAAAAAAAAAAAAAAAAAAAAAAAAAAAAAAAAAAAAAAAAAAAAAAAAAAAAAAAAAAAAAAAAAAAAAAAAAAAAAAAAAAAAAAAAAAAAAAAAAAAAAAAAAAAAAAAAAAAAAAAAAAAAAAAAAAAAAAAAAAAAAAAAAAAAAAAAAAAAAAAAAAAAAAAAAAAAAAAAAAAAAAAAAAAAAAAAAAAAAAAAAAAAAAAAAAAAAAAAAAAAAAAAAAAAAAAAAAAAAAAAAAAAAAAAAAAAAAAAAAAAAAAAAAAAAAAAAAAAAAAAAAAAAAAAAAAAAAAAAAAAAAAAAAAAAAAAAAAAAAAAAAAAAAAAAAAAAAAAAAAAAAAAAAAAAAAAAAAAAAAAAAAAAAAAAAAAAAAAAAAAAAAAAAAAAAAAAAAAAAAAAAAAAAAAAAAAAAAAAAAAAAAAAAAAAAAAAAAAAAAAAAAAAAAAAAAAAAAAAAAAAAAAAAAAAAAAAAAAAAAAAAAAAAAAAAAAAAAAAAAAAAAAAAAAAAAAAAAAAAAAAAAAAAAAAAAAAAAAAAAAAAAAAAAAAAAAAAAAAAAAAAAAAAAAAAAAAAAAAAAAAAAAAAAAAAAAAAAAAAAAAAAAAAAAAAAAAAAAAAAAAAAAAAAAAAAAAAAAAAAAAAAAAAAAAAAAAAAAAAAAAAPZYQJqV1XE8Kq9AWaJ0EZ9CTeo3+ujDQqFM4Gihbvu0z9oesGfgmx0XlgnFeKxT4z/9P6LRSpfE8WOXDrqClebJXpE=</c2pa:manifest></metadata><title>ProfitLink Pro</title><defs>
  <linearGradient id="navyh" gradientUnits="userSpaceOnUse" x1="0" y1="0" x2="100" y2="100">
    <stop offset="0" stop-color="#16385F"/>
    <stop offset="1" stop-color="#061627"/>
  </linearGradient>
  <linearGradient id="goldh" gradientUnits="userSpaceOnUse" x1="45" y1="20" x2="80" y2="80">
    <stop offset="0" stop-color="#E2C466"/>
    <stop offset="1" stop-color="#C9A227"/>
  </linearGradient><mask id="knockh" maskUnits="userSpaceOnUse" x="0" y="0" width="100" height="100"><rect x="0" y="0" width="100" height="100" fill="#fff"/><g fill="none" stroke="#000" stroke-width="14" stroke-linecap="butt"><path d="M28 24 V 76"/><path d="M28 24 H 40 A 13 13 0 0 1 40 50 H 28"/></g></mask></defs><g transform="scale(0.960000)"><rect x="0" y="0" width="100" height="100" rx="23" fill="url(#navyh)"/><rect x="0.9" y="0.9" width="98.2" height="98.2" rx="22.3" fill="none" stroke="#C9A227" stroke-opacity="0.32" stroke-width="1.8"/><g fill="none" stroke-width="8" stroke-linecap="butt" stroke-linejoin="miter"><path d="M52 24 V 76 H 76" stroke="url(#goldh)" mask="url(#knockh)"/><path d="M28 24 V 76" stroke="#FFFFFF"/><path d="M28 24 H 40 A 13 13 0 0 1 40 50 H 28" stroke="#FFFFFF"/></g></g><g transform="translate(122.00 62.00) scale(0.024414)" fill="#0A2240"><path d="M124.0 0V-1490H693.0Q857.0 -1490 976.5 -1432.0Q1096.0 -1374 1160.5 -1267.0Q1225.0 -1160 1225.0 -1014Q1225.0 -867 1159.0 -760.0Q1093.0 -653 972.5 -594.5Q852.0 -536 688.0 -536H388.0V0ZM388.0 -762H678.0Q811.0 -762 888.0 -829.5Q965.0 -897 965.0 -1014Q965.0 -1130 888.0 -1197.0Q811.0 -1264 678.0 -1264H388.0Z M1363.328 0V-1056H1606.328V-881H1609.328Q1638.328 -971 1700.828 -1018.5Q1763.328 -1066 1865.328 -1066Q1891.328 -1066 1911.828 -1064.5Q1932.328 -1063 1947.328 -1062V-838Q1933.328 -840 1899.328 -843.0Q1865.328 -846 1828.328 -846Q1738.328 -846 1676.828 -784.0Q1615.328 -722 1615.328 -598V0Z M2535.656 24Q2379.656 24 2262.656 -45.5Q2145.656 -115 2080.156 -239.0Q2014.656 -363 2014.656 -527Q2014.656 -691 2080.156 -815.5Q2145.656 -940 2262.656 -1010.0Q2379.656 -1080 2535.656 -1080Q2690.656 -1080 2808.156 -1010.0Q2925.656 -940 2991.156 -815.5Q3056.656 -691 3056.656 -527Q3056.656 -363 2991.156 -239.0Q2925.656 -115 2808.156 -45.5Q2690.656 24 2535.656 24ZM2535.656 -187Q2656.656 -187 2728.656 -278.0Q2800.656 -369 2800.656 -527Q2800.656 -685 2728.656 -777.0Q2656.656 -869 2535.656 -869Q2413.656 -869 2341.656 -777.5Q2269.656 -686 2269.656 -527Q2269.656 -369 2341.656 -278.0Q2413.656 -187 2535.656 -187Z M3764.984 -1056V-853H3549.984V0H3296.984V-853H3106.984V-1056H3296.984V-1210Q3296.984 -1346 3379.484 -1418.0Q3461.984 -1490 3617.984 -1490H3764.984V-1287H3667.984Q3602.984 -1287 3576.484 -1260.0Q3549.984 -1233 3549.984 -1168V-1056Z M3888.312 0V-1056H4140.312V0ZM4014.312 -1213Q3949.312 -1213 3906.312 -1254.5Q3863.312 -1296 3863.312 -1357Q3863.312 -1418 3906.312 -1459.0Q3949.312 -1500 4014.312 -1500Q4078.312 -1500 4121.312 -1459.0Q4164.312 -1418 4164.312 -1357Q4164.312 -1296 4121.312 -1254.5Q4078.312 -1213 4014.312 -1213Z M4892.639999999999 -1056V-853H4677.639999999999V-303Q4677.639999999999 -246 4700.639999999999 -224.5Q4723.639999999999 -203 4784.639999999999 -203H4892.639999999999V0H4740.639999999999Q4579.639999999999 0 4502.139999999999 -65.0Q4424.639999999999 -130 4424.639999999999 -266V-853H4240.639999999999V-1056H4424.639999999999V-1344H4677.639999999999V-1056Z M5034.967999999999 0V-1490H5298.967999999999V-229H5989.967999999999V0Z M6120.2959999999985 0V-1056H6372.2959999999985V0ZM6246.2959999999985 -1213Q6181.2959999999985 -1213 6138.2959999999985 -1254.5Q6095.2959999999985 -1296 6095.2959999999985 -1357Q6095.2959999999985 -1418 6138.2959999999985 -1459.0Q6181.2959999999985 -1500 6246.2959999999985 -1500Q6310.2959999999985 -1500 6353.2959999999985 -1459.0Q6396.2959999999985 -1418 6396.2959999999985 -1357Q6396.2959999999985 -1296 6353.2959999999985 -1254.5Q6310.2959999999985 -1213 6246.2959999999985 -1213Z M6819.623999999998 -597V0H6567.623999999998V-1056H6815.623999999998V-894Q6925.623999999998 -1077 7139.623999999998 -1077Q7305.623999999998 -1077 7411.123999999998 -970.0Q7516.623999999998 -863 7516.623999999998 -660V0H7263.623999999998V-620Q7263.623999999998 -736 7207.623999999998 -796.0Q7151.623999999998 -856 7050.623999999998 -856Q6951.623999999998 -856 6885.623999999998 -794.0Q6819.623999999998 -732 6819.623999999998 -597Z M7711.9519999999975 0V-1490H7963.9519999999975V-628H7966.9519999999975L8377.951999999997 -1056H8680.951999999997L8251.951999999997 -600L8706.951999999997 0H8405.951999999997L8059.9519999999975 -452L7963.9519999999975 -353V0Z"/></g><g transform="translate(344.65 62.00) scale(0.024414)" fill="#C9A227"><path d="M124.0 0V-1490H693.0Q857.0 -1490 976.5 -1432.0Q1096.0 -1374 1160.5 -1267.0Q1225.0 -1160 1225.0 -1014Q1225.0 -867 1159.0 -760.0Q1093.0 -653 972.5 -594.5Q852.0 -536 688.0 -536H388.0V0ZM388.0 -762H678.0Q811.0 -762 888.0 -829.5Q965.0 -897 965.0 -1014Q965.0 -1130 888.0 -1197.0Q811.0 -1264 678.0 -1264H388.0Z M1363.328 0V-1056H1606.328V-881H1609.328Q1638.328 -971 1700.828 -1018.5Q1763.328 -1066 1865.328 -1066Q1891.328 -1066 1911.828 -1064.5Q1932.328 -1063 1947.328 -1062V-838Q1933.328 -840 1899.328 -843.0Q1865.328 -846 1828.328 -846Q1738.328 -846 1676.828 -784.0Q1615.328 -722 1615.328 -598V0Z M2535.656 24Q2379.656 24 2262.656 -45.5Q2145.656 -115 2080.156 -239.0Q2014.656 -363 2014.656 -527Q2014.656 -691 2080.156 -815.5Q2145.656 -940 2262.656 -1010.0Q2379.656 -1080 2535.656 -1080Q2690.656 -1080 2808.156 -1010.0Q2925.656 -940 2991.156 -815.5Q3056.656 -691 3056.656 -527Q3056.656 -363 2991.156 -239.0Q2925.656 -115 2808.156 -45.5Q2690.656 24 2535.656 24ZM2535.656 -187Q2656.656 -187 2728.656 -278.0Q2800.656 -369 2800.656 -527Q2800.656 -685 2728.656 -777.0Q2656.656 -869 2535.656 -869Q2413.656 -869 2341.656 -777.5Q2269.656 -686 2269.656 -527Q2269.656 -369 2341.656 -278.0Q2413.656 -187 2535.656 -187Z"/></g></svg>